<?xml version="1.0" standalone="no"?>
<!DOCTYPE svg PUBLIC "-//W3C//DTD SVG 20010904//EN"
 "http://www.w3.org/TR/2001/REC-SVG-20010904/DTD/svg10.dtd">
<svg version="1.0" xmlns="http://www.w3.org/2000/svg"
 width="512.000000pt" height="512.000000pt" viewBox="0 0 512.000000 512.000000"
 preserveAspectRatio="xMidYMid meet">

<g transform="translate(0.000000,512.000000) scale(0.100000,-0.100000)"
fill="#000000" stroke="none">
<path d="M1995 4726 c-80 -36 -126 -123 -179 -338 -90 -367 -136 -734 -136
-1096 l0 -194 -61 -96 c-111 -176 -202 -388 -261 -606 -29 -106 -31 -346 -4
-475 53 -254 138 -420 306 -595 404 -422 1150 -676 1919 -653 518 15 889 152
1166 431 184 184 295 392 352 659 27 124 24 397 -6 537 -20 94 -67 244 -117
372 -17 45 -17 50 4 210 36 262 42 339 49 603 6 257 -5 486 -33 704 -46 359
-172 405 -531 195 -199 -117 -377 -278 -485 -439 -34 -49 -66 -89 -72 -88 -6
1 -69 22 -141 47 -178 62 -325 86 -523 86 -103 -1 -193 -7 -260 -18 l-104 -18
-20 40 c-100 197 -385 516 -573 641 -143 95 -223 121 -290 91z m171 -327 c42
-25 207 -200 280 -294 76 -100 140 -217 169 -308 44 -138 31 -203 -56 -288
-108 -106 -296 -178 -474 -182 -87 -1 -126 19 -158 83 -21 43 -22 54 -21 325
1 234 5 298 22 390 25 139 55 217 98 261 41 41 88 45 140 13z m2582 -179 c84
-84 99 -349 42 -765 -25 -181 -34 -212 -80 -257 -34 -35 -43 -38 -91 -38 -59
0 -196 34 -273 68 -107 48 -241 165 -272 239 -21 49 -17 136 8 196 57 139 191
301 370 449 174 145 237 168 296 108z m-2301 -928 c6 -4 12 -14 14 -22 6 -31
-14 -256 -23 -267 -14 -18 -53 -16 -68 2 -16 19 -8 241 9 274 12 21 45 28 68
13z m187 -78 c20 -19 20 -19 -4 -88 -11 -32 -23 -80 -26 -108 -7 -53 -24 -78
-54 -78 -35 0 -49 38 -39 104 12 72 44 167 61 178 20 12 45 9 62 -8z m1585
-52 c11 -22 17 -233 7 -250 -10 -16 -61 -15 -75 2 -17 20 -27 217 -12 244 15
28 66 30 80 4z m-241 -20 c13 -9 72 -184 72 -217 0 -42 -44 -59 -74 -29 -17
16 -66 167 -66 201 0 38 38 63 68 45z m-1533 -357 c89 -24 173 -73 248 -145
78 -76 88 -112 41 -149 -40 -32 -60 -26 -123 35 -32 30 -74 65 -92 76 -48 30
-143 58 -193 58 -92 0 -197 -51 -236 -115 -11 -18 -34 -38 -51 -45 -27 -11
-34 -11 -57 7 -42 31 -41 73 3 132 51 70 155 134 250 154 47 10 155 6 210 -8z
m1917 -104 c90 -31 168 -87 229 -164 44 -55 50 -96 19 -127 -37 -37 -71 -26
-132 43 -30 34 -79 76 -109 92 -46 26 -64 30 -129 30 -63 0 -82 -4 -121 -27
-25 -15 -58 -45 -72 -67 -31 -47 -68 -61 -106 -40 -41 23 -40 82 2 139 90 121
269 173 419 121z m-1128 -286 c53 -53 109 -58 164 -14 50 39 122 7 122 -54 0
-39 -58 -94 -116 -109 -24 -7 -44 -16 -44 -20 0 -22 42 -88 73 -115 103 -90
259 -79 346 24 18 21 41 48 51 61 39 46 120 15 120 -46 0 -61 -88 -160 -185
-207 -149 -73 -321 -46 -436 70 l-46 45 -59 -35 c-108 -65 -215 -81 -325 -49
-136 40 -276 186 -251 262 12 38 55 57 93 42 16 -7 29 -16 29 -20 0 -19 98
-115 135 -131 91 -42 207 -16 287 64 l50 50 -34 18 c-54 28 -108 93 -108 131
0 74 75 93 134 33z m-1228 -160 c146 -30 266 -55 269 -55 2 0 11 -7 19 -16 23
-22 20 -51 -7 -69 -21 -13 -44 -10 -282 40 -307 65 -292 61 -306 86 -8 16 -7
26 6 45 8 13 20 24 26 24 6 0 130 -25 275 -55z m172 -207 c16 -16 15 -53 -1
-66 -14 -12 -421 -28 -460 -18 -48 12 -43 80 5 89 13 2 118 5 234 6 151 1 213
-2 222 -11z m2322 -14 c124 -9 231 -20 237 -26 18 -15 16 -53 -3 -73 -12 -11
-28 -14 -58 -11 -22 3 -147 13 -276 22 -129 9 -241 21 -247 26 -18 15 -16 54
3 73 13 12 28 15 68 11 28 -3 152 -13 276 -22z m-51 -190 c97 -25 193 -50 214
-55 55 -15 70 -66 26 -90 -28 -15 -428 85 -451 113 -10 11 -18 24 -18 29 0 10
37 49 46 49 4 0 86 -21 183 -46z"/>
<path d="M306 2516 c-50 -19 -100 -68 -128 -125 -24 -50 -29 -152 -10 -188 10
-18 7 -24 -27 -46 -165 -110 -185 -303 -44 -427 50 -44 114 -71 183 -77 l58
-6 5 -211 c4 -154 11 -237 25 -306 40 -190 103 -338 197 -461 111 -143 319
-263 496 -284 211 -26 427 150 470 380 23 126 -7 199 -161 383 -136 165 -198
256 -266 391 -58 119 -94 213 -124 330 l-20 79 31 67 c72 153 23 332 -108 396
-66 31 -170 32 -232 2 l-44 -22 -40 45 c-22 25 -57 54 -79 65 -53 27 -132 33
-182 15z m325 -364 c39 -20 62 -41 84 -77 61 -99 32 -235 -65 -298 -161 -107
-381 53 -331 239 38 141 183 204 312 136z"/>
</g>
</svg>
